#usda 1.0
(
    defaultPrim = "ur10"
    metersPerUnit = 1
    upAxis = "Z"
    startTimeCode = 0
    endTimeCode = 120
    timeCodesPerSecond = 30
    doc = "The UR10 with its six revolute joints driven through a looping motion."
)

def Xform "ur10" (
    prepend references = @ur10.usdc@
)
{
    over "world"
    {
        over "base_link"
        {
            over "shoulder_link"
            {
                double xformOp:rotateZ:joint.timeSamples = { 0: 0.000, 2: 5.226, 4: 10.396, 6: 15.451, 8: 20.337, 10: 25.000, 12: 29.389, 14: 33.457, 16: 37.157, 18: 40.451, 20: 43.301, 22: 45.677, 24: 47.553, 26: 48.907, 28: 49.726, 30: 50.000, 32: 49.726, 34: 48.907, 36: 47.553, 38: 45.677, 40: 43.301, 42: 40.451, 44: 37.157, 46: 33.457, 48: 29.389, 50: 25.000, 52: 20.337, 54: 15.451, 56: 10.396, 58: 5.226, 60: 0.000, 62: -5.226, 64: -10.396, 66: -15.451, 68: -20.337, 70: -25.000, 72: -29.389, 74: -33.457, 76: -37.157, 78: -40.451, 80: -43.301, 82: -45.677, 84: -47.553, 86: -48.907, 88: -49.726, 90: -50.000, 92: -49.726, 94: -48.907, 96: -47.553, 98: -45.677, 100: -43.301, 102: -40.451, 104: -37.157, 106: -33.457, 108: -29.389, 110: -25.000, 112: -20.337, 114: -15.451, 116: -10.396, 118: -5.226, 120: -0.000 }
                uniform token[] xformOpOrder = ["xformOp:translate", "xformOp:rotateZ:joint"]
                over "upper_arm_link"
                {
                    double xformOp:rotateY:joint.timeSamples = { 0: -83.000, 2: -83.066, 4: -83.262, 6: -83.587, 8: -84.037, 10: -84.608, 12: -85.292, 14: -86.082, 16: -86.970, 18: -87.947, 20: -89.000, 22: -90.119, 24: -91.292, 26: -92.505, 28: -93.746, 30: -95.000, 32: -96.254, 34: -97.495, 36: -98.708, 38: -99.881, 40: -101.000, 42: -102.053, 44: -103.030, 46: -103.918, 48: -104.708, 50: -105.392, 52: -105.963, 54: -106.413, 56: -106.738, 58: -106.934, 60: -107.000, 62: -106.934, 64: -106.738, 66: -106.413, 68: -105.963, 70: -105.392, 72: -104.708, 74: -103.918, 76: -103.030, 78: -102.053, 80: -101.000, 82: -99.881, 84: -98.708, 86: -97.495, 88: -96.254, 90: -95.000, 92: -93.746, 94: -92.505, 96: -91.292, 98: -90.119, 100: -89.000, 102: -87.947, 104: -86.970, 106: -86.082, 108: -85.292, 110: -84.608, 112: -84.037, 114: -83.587, 116: -83.262, 118: -83.066, 120: -83.000 }
                    uniform token[] xformOpOrder = ["xformOp:translate", "xformOp:orient", "xformOp:rotateY:joint"]
                    over "forearm_link"
                    {
                        double xformOp:rotateY:joint.timeSamples = { 0: 80.000, 2: 77.909, 4: 75.842, 6: 73.820, 8: 71.865, 10: 70.000, 12: 68.244, 14: 66.617, 16: 65.137, 18: 63.820, 20: 62.679, 22: 61.729, 24: 60.979, 26: 60.437, 28: 60.110, 30: 60.000, 32: 60.110, 34: 60.437, 36: 60.979, 38: 61.729, 40: 62.679, 42: 63.820, 44: 65.137, 46: 66.617, 48: 68.244, 50: 70.000, 52: 71.865, 54: 73.820, 56: 75.842, 58: 77.909, 60: 80.000, 62: 82.091, 64: 84.158, 66: 86.180, 68: 88.135, 70: 90.000, 72: 91.756, 74: 93.383, 76: 94.863, 78: 96.180, 80: 97.321, 82: 98.271, 84: 99.021, 86: 99.563, 88: 99.890, 90: 100.000, 92: 99.890, 94: 99.563, 96: 99.021, 98: 98.271, 100: 97.321, 102: 96.180, 104: 94.863, 106: 93.383, 108: 91.756, 110: 90.000, 112: 88.135, 114: 86.180, 116: 84.158, 118: 82.091, 120: 80.000 }
                        uniform token[] xformOpOrder = ["xformOp:translate", "xformOp:rotateY:joint"]
                        over "wrist_1_link"
                        {
                            double xformOp:rotateY:joint.timeSamples = { 0: -65.305, 2: -63.272, 4: -61.421, 6: -59.775, 8: -58.349, 10: -57.161, 12: -56.224, 14: -55.546, 16: -55.137, 18: -55.000, 20: -55.137, 22: -55.546, 24: -56.224, 26: -57.161, 28: -58.349, 30: -59.775, 32: -61.421, 34: -63.272, 36: -65.305, 38: -67.500, 40: -69.832, 42: -72.275, 44: -74.802, 46: -77.387, 48: -80.000, 50: -82.613, 52: -85.198, 54: -87.725, 56: -90.168, 58: -92.500, 60: -94.695, 62: -96.728, 64: -98.579, 66: -100.225, 68: -101.651, 70: -102.839, 72: -103.776, 74: -104.454, 76: -104.863, 78: -105.000, 80: -104.863, 82: -104.454, 84: -103.776, 86: -102.839, 88: -101.651, 90: -100.225, 92: -98.579, 94: -96.728, 96: -94.695, 98: -92.500, 100: -90.168, 102: -87.725, 104: -85.198, 106: -82.613, 108: -80.000, 110: -77.387, 112: -74.802, 114: -72.275, 116: -69.832, 118: -67.500, 120: -65.305 }
                            uniform token[] xformOpOrder = ["xformOp:translate", "xformOp:orient", "xformOp:rotateY:joint"]
                            over "wrist_2_link"
                            {
                                double xformOp:rotateZ:joint.timeSamples = { 0: -107.634, 2: -110.074, 4: -112.294, 6: -114.271, 8: -115.981, 10: -117.406, 12: -118.532, 14: -119.344, 16: -119.836, 18: -120.000, 20: -119.836, 22: -119.344, 24: -118.532, 26: -117.406, 28: -115.981, 30: -114.271, 32: -112.294, 34: -110.074, 36: -107.634, 38: -105.000, 40: -102.202, 42: -99.271, 44: -96.237, 46: -93.136, 48: -90.000, 50: -86.864, 52: -83.763, 54: -80.729, 56: -77.798, 58: -75.000, 60: -72.366, 62: -69.926, 64: -67.706, 66: -65.729, 68: -64.019, 70: -62.594, 72: -61.468, 74: -60.656, 76: -60.164, 78: -60.000, 80: -60.164, 82: -60.656, 84: -61.468, 86: -62.594, 88: -64.019, 90: -65.729, 92: -67.706, 94: -69.926, 96: -72.366, 98: -75.000, 100: -77.798, 102: -80.729, 104: -83.763, 106: -86.864, 108: -90.000, 110: -93.136, 112: -96.237, 114: -99.271, 116: -102.202, 118: -105.000, 120: -107.634 }
                                uniform token[] xformOpOrder = ["xformOp:translate", "xformOp:rotateZ:joint"]
                                over "wrist_3_link"
                                {
                                    double xformOp:rotateY:joint.timeSamples = { 0: 85.595, 2: 82.219, 4: 77.942, 6: 72.812, 8: 66.883, 10: 60.222, 12: 52.901, 14: 45.000, 16: 36.606, 18: 27.812, 20: 18.712, 22: 9.408, 24: 0.000, 26: -9.408, 28: -18.712, 30: -27.812, 32: -36.606, 34: -45.000, 36: -52.901, 38: -60.222, 40: -66.883, 42: -72.812, 44: -77.942, 46: -82.219, 48: -85.595, 50: -88.033, 52: -89.507, 54: -90.000, 56: -89.507, 58: -88.033, 60: -85.595, 62: -82.219, 64: -77.942, 66: -72.812, 68: -66.883, 70: -60.222, 72: -52.901, 74: -45.000, 76: -36.606, 78: -27.812, 80: -18.712, 82: -9.408, 84: -0.000, 86: 9.408, 88: 18.712, 90: 27.812, 92: 36.606, 94: 45.000, 96: 52.901, 98: 60.222, 100: 66.883, 102: 72.812, 104: 77.942, 106: 82.219, 108: 85.595, 110: 88.033, 112: 89.507, 114: 90.000, 116: 89.507, 118: 88.033, 120: 85.595 }
                                    uniform token[] xformOpOrder = ["xformOp:translate", "xformOp:rotateY:joint"]
                                }
                            }
                        }
                    }
                }
            }
        }
    }
}
