#usda 1.0
(
    defaultPrim = "Scene"
    metersPerUnit = 1
    upAxis = "Z"
    startTimeCode = 0
    endTimeCode = 360
    timeCodesPerSecond = 30
    doc = "A UR10 moving a box between two pedestals and back."
)

def Xform "Scene"
{
    def Xform "ur10" (
        prepend references = @ur10.usdc@
    )
    {
        over "world"
        {
            over "base_link"
            {
                over "shoulder_link"
                {
                    double xformOp:rotateZ:joint.timeSamples = { 0: 23.6347, 1: 23.4981, 2: 23.0975, 3: 22.4454, 4: 21.5527, 5: 20.4299, 6: 19.0870, 7: 17.5344, 8: 15.7828, 9: 13.8440, 10: 11.7308, 11: 9.4569, 12: 7.0369, 13: 4.4867, 14: 1.8230, 15: -0.9369, 16: -3.7747, 17: -6.6718, 18: -9.6087, 19: -12.5660, 20: -15.5235, 21: -18.4611, 22: -21.3583, 23: -24.1945, 24: -26.9491, 25: -29.6013, 26: -32.1304, 27: -34.5157, 28: -36.7364, 29: -38.7719, 30: -40.6015, 31: -42.2050, 32: -43.5617, 33: -44.6516, 34: -45.4546, 35: -45.9507, 36: -46.1204, 37: -46.1204, 38: -46.1204, 39: -46.1204, 40: -46.1204, 41: -46.1204, 42: -46.1204, 43: -46.1204, 44: -46.1204, 45: -46.1204, 46: -46.1204, 47: -46.1204, 48: -46.1204, 49: -46.1204, 50: -46.1204, 51: -46.1204, 52: -46.1204, 53: -46.1204, 54: -46.1204, 55: -46.1204, 56: -46.1204, 57: -46.1204, 58: -46.1204, 59: -46.1204, 60: -46.1204, 61: -46.1204, 62: -46.1204, 63: -46.1204, 64: -46.1204, 65: -46.1204, 66: -46.1204, 67: -46.1204, 68: -46.1204, 69: -46.1204, 70: -46.1204, 71: -46.1204, 72: -46.1204, 73: -46.1204, 74: -46.1204, 75: -46.1204, 76: -46.1204, 77: -46.1204, 78: -46.1204, 79: -46.1204, 80: -46.1204, 81: -46.1204, 82: -46.1204, 83: -46.1204, 84: -46.1204, 85: -46.1204, 86: -46.1204, 87: -46.1204, 88: -45.8537, 89: -45.0709, 90: -43.7977, 91: -42.0600, 92: -39.8836, 93: -37.2943, 94: -34.3179, 95: -30.9802, 96: -27.3071, 97: -23.3243, 98: -19.0578, 99: -14.5332, 100: -9.7765, 101: -4.8134, 102: 0.3302, 103: 5.6286, 104: 11.0559, 105: 16.5863, 106: 22.1940, 107: 27.8532, 108: 33.5381, 109: 39.2229, 110: 44.8818, 111: 50.4889, 112: 56.0186, 113: 61.4449, 114: 66.7422, 115: 71.8846, 116: 76.8462, 117: 81.6015, 118: 86.1245, 119: 90.3894, 120: 94.3706, 121: 98.0421, 122: 101.3782, 123: 104.3532, 124: 106.9413, 125: 109.1166, 126: 110.8534, 127: 112.1259, 128: 112.9083, 129: 113.1748, 130: 113.1748, 131: 113.1748, 132: 113.1748, 133: 113.1748, 134: 113.1748, 135: 113.1748, 136: 113.1748, 137: 113.1748, 138: 113.1748, 139: 113.1748, 140: 113.1748, 141: 113.1748, 142: 113.1748, 143: 113.1748, 144: 113.1748, 145: 113.1748, 146: 113.1748, 147: 113.1748, 148: 113.1748, 149: 113.1748, 150: 113.1748, 151: 113.1748, 152: 113.1748, 153: 113.1748, 154: 113.1748, 155: 113.1748, 156: 113.1748, 157: 113.1748, 158: 113.1748, 159: 113.1748, 160: 113.1748, 161: 113.1748, 162: 113.1748, 163: 113.1748, 164: 113.1748, 165: 113.1748, 166: 113.1748, 167: 113.1748, 168: 113.1748, 169: 113.1748, 170: 113.1748, 171: 113.1748, 172: 113.1748, 173: 113.1748, 174: 113.1748, 175: 113.1748, 176: 113.1748, 177: 113.1748, 178: 113.1748, 179: 113.1748, 180: 113.1748, 181: 113.1748, 182: 113.1748, 183: 113.1748, 184: 113.1748, 185: 113.1748, 186: 113.1748, 187: 113.1748, 188: 113.1748, 189: 113.1748, 190: 113.1748, 191: 113.1748, 192: 113.1748, 193: 113.1748, 194: 113.1748, 195: 113.1748, 196: 113.1748, 197: 113.1748, 198: 113.1748, 199: 113.1748, 200: 113.1748, 201: 113.1748, 202: 113.1748, 203: 113.1748, 204: 113.1748, 205: 113.1748, 206: 113.1748, 207: 113.1748, 208: 113.1748, 209: 113.1748, 210: 113.1748, 211: 113.1748, 212: 113.1748, 213: 113.1748, 214: 113.1748, 215: 113.1748, 216: 113.1748, 217: 113.1748, 218: 113.1748, 219: 113.1748, 220: 113.1748, 221: 113.1748, 222: 113.1748, 223: 113.1748, 224: 113.1748, 225: 113.1748, 226: 113.1748, 227: 113.1748, 228: 113.1748, 229: 113.1748, 230: 113.1748, 231: 113.1748, 232: 113.1748, 233: 113.1748, 234: 113.1748, 235: 113.1748, 236: 113.1748, 237: 113.1748, 238: 113.1748, 239: 113.1748, 240: 113.1748, 241: 112.9083, 242: 112.1259, 243: 110.8534, 244: 109.1166, 245: 106.9413, 246: 104.3532, 247: 101.3782, 248: 98.0421, 249: 94.3706, 250: 90.3894, 251: 86.1245, 252: 81.6015, 253: 76.8462, 254: 71.8846, 255: 66.7422, 256: 61.4449, 257: 56.0186, 258: 50.4889, 259: 44.8818, 260: 39.2229, 261: 33.5381, 262: 27.8532, 263: 22.1940, 264: 16.5863, 265: 11.0559, 266: 5.6286, 267: 0.3302, 268: -4.8134, 269: -9.7765, 270: -14.5332, 271: -19.0578, 272: -23.3243, 273: -27.3071, 274: -30.9802, 275: -34.3179, 276: -37.2943, 277: -39.8836, 278: -42.0600, 279: -43.7977, 280: -45.0709, 281: -45.8537, 282: -46.1204, 283: -46.1204, 284: -46.1204, 285: -46.1204, 286: -46.1204, 287: -46.1204, 288: -46.1204, 289: -46.1204, 290: -46.1204, 291: -46.1204, 292: -46.1204, 293: -46.1204, 294: -46.1204, 295: -46.1204, 296: -46.1204, 297: -46.1204, 298: -46.1204, 299: -46.1204, 300: -46.1204, 301: -46.1204, 302: -46.1204, 303: -46.1204, 304: -46.1204, 305: -46.1204, 306: -46.1204, 307: -46.1204, 308: -46.1204, 309: -46.1204, 310: -46.1204, 311: -46.1204, 312: -46.1204, 313: -46.1204, 314: -46.1204, 315: -46.1204, 316: -46.1204, 317: -46.1204, 318: -46.1204, 319: -46.1204, 320: -46.1204, 321: -46.1204, 322: -46.1204, 323: -46.1204, 324: -46.1204, 325: -46.1204, 326: -46.1204, 327: -46.1204, 328: -46.1204, 329: -46.1204, 330: -46.1204, 331: -46.1204, 332: -46.1204, 333: -46.1204, 334: -45.8206, 335: -44.9521, 336: -43.5617, 337: -41.6969, 338: -39.4056, 339: -36.7364, 340: -33.7378, 341: -30.4590, 342: -26.9491, 343: -23.2571, 344: -19.4323, 345: -15.5235, 346: -11.5792, 347: -7.6473, 348: -3.7747, 349: -0.0074, 350: 3.6106, 351: 7.0369, 352: 10.2318, 353: 13.1584, 354: 15.7828, 355: 18.0746, 356: 20.0063, 357: 21.5527, 358: 22.6900, 359: 23.3932, 360: 23.6347 }
                    uniform token[] xformOpOrder = ["xformOp:translate", "xformOp:rotateZ:joint"]
                    over "upper_arm_link"
                    {
                        double xformOp:rotateY:joint.timeSamples = { 0: -110.5915, 1: -110.5157, 2: -110.2938, 3: -109.9339, 4: -109.4442, 5: -108.8322, 6: -108.1059, 7: -107.2727, 8: -106.3403, 9: -105.3164, 10: -104.2086, 11: -103.0247, 12: -101.7726, 13: -100.4602, 14: -99.0957, 15: -97.6872, 16: -96.2432, 17: -94.7721, 18: -93.2824, 19: -91.7829, 20: -90.2825, 21: -88.7901, 22: -87.3151, 23: -85.8668, 24: -84.4549, 25: -83.0895, 26: -81.7810, 27: -80.5401, 28: -79.3779, 29: -78.3062, 30: -77.3370, 31: -76.4826, 32: -75.7556, 33: -75.1687, 34: -74.7347, 35: -74.4657, 36: -74.3736, 37: -74.4241, 38: -74.5643, 39: -74.7728, 40: -75.0245, 41: -75.2937, 42: -75.5562, 43: -75.7912, 44: -75.9818, 45: -76.1156, 46: -76.1850, 47: -76.1870, 48: -76.1234, 49: -76.0001, 50: -75.8274, 51: -75.6187, 52: -75.3906, 53: -75.1617, 54: -74.9520, 55: -74.7812, 56: -74.6677, 57: -74.6272, 58: -74.6272, 59: -74.6272, 60: -74.6272, 61: -74.6272, 62: -74.6272, 63: -74.6272, 64: -74.6272, 65: -74.6272, 66: -74.6272, 67: -74.6677, 68: -74.7812, 69: -74.9520, 70: -75.1617, 71: -75.3906, 72: -75.6187, 73: -75.8274, 74: -76.0001, 75: -76.1234, 76: -76.1870, 77: -76.1850, 78: -76.1156, 79: -75.9818, 80: -75.7912, 81: -75.5562, 82: -75.2937, 83: -75.0245, 84: -74.7728, 85: -74.5643, 86: -74.4241, 87: -74.3736, 88: -74.3826, 89: -74.4088, 90: -74.4515, 91: -74.5098, 92: -74.5826, 93: -74.6693, 94: -74.7688, 95: -74.8802, 96: -75.0027, 97: -75.1353, 98: -75.2772, 99: -75.4274, 100: -75.5850, 101: -75.7493, 102: -75.9192, 103: -76.0939, 104: -76.2725, 105: -76.4542, 106: -76.6381, 107: -76.8234, 108: -77.0092, 109: -77.1946, 110: -77.3789, 111: -77.5612, 112: -77.7407, 113: -77.9165, 114: -78.0879, 115: -78.2541, 116: -78.4142, 117: -78.5674, 118: -78.7130, 119: -78.8500, 120: -78.9779, 121: -79.0956, 122: -79.2026, 123: -79.2978, 124: -79.3806, 125: -79.4502, 126: -79.5057, 127: -79.5464, 128: -79.5714, 129: -79.5799, 130: -79.6234, 131: -79.7443, 132: -79.9239, 133: -80.1401, 134: -80.3700, 135: -80.5920, 136: -80.7865, 137: -80.9379, 138: -81.0341, 139: -81.0678, 140: -81.0360, 141: -80.9401, 142: -80.7860, 143: -80.5838, 144: -80.3474, 145: -80.0936, 146: -79.8417, 147: -79.6123, 148: -79.4263, 149: -79.3030, 150: -79.2590, 151: -79.2590, 152: -79.2590, 153: -79.2590, 154: -79.2590, 155: -79.2590, 156: -79.2590, 157: -79.2590, 158: -79.2590, 159: -79.2590, 160: -79.3030, 161: -79.4263, 162: -79.6123, 163: -79.8417, 164: -80.0936, 165: -80.3474, 166: -80.5838, 167: -80.7860, 168: -80.9401, 169: -81.0360, 170: -81.0678, 171: -81.0341, 172: -80.9379, 173: -80.7865, 174: -80.5920, 175: -80.3700, 176: -80.1401, 177: -79.9239, 178: -79.7443, 179: -79.6234, 180: -79.5799, 181: -79.5799, 182: -79.5799, 183: -79.5799, 184: -79.5799, 185: -79.5799, 186: -79.5799, 187: -79.5799, 188: -79.5799, 189: -79.5799, 190: -79.6234, 191: -79.7443, 192: -79.9239, 193: -80.1401, 194: -80.3700, 195: -80.5920, 196: -80.7865, 197: -80.9379, 198: -81.0341, 199: -81.0678, 200: -81.0360, 201: -80.9401, 202: -80.7860, 203: -80.5838, 204: -80.3474, 205: -80.0936, 206: -79.8417, 207: -79.6123, 208: -79.4263, 209: -79.3030, 210: -79.2590, 211: -79.2590, 212: -79.2590, 213: -79.2590, 214: -79.2590, 215: -79.2590, 216: -79.2590, 217: -79.2590, 218: -79.2590, 219: -79.2590, 220: -79.3030, 221: -79.4263, 222: -79.6123, 223: -79.8417, 224: -80.0936, 225: -80.3474, 226: -80.5838, 227: -80.7860, 228: -80.9401, 229: -81.0360, 230: -81.0678, 231: -81.0341, 232: -80.9379, 233: -80.7865, 234: -80.5920, 235: -80.3700, 236: -80.1401, 237: -79.9239, 238: -79.7443, 239: -79.6234, 240: -79.5799, 241: -79.5714, 242: -79.5464, 243: -79.5057, 244: -79.4502, 245: -79.3806, 246: -79.2978, 247: -79.2026, 248: -79.0956, 249: -78.9779, 250: -78.8500, 251: -78.7130, 252: -78.5674, 253: -78.4142, 254: -78.2541, 255: -78.0879, 256: -77.9165, 257: -77.7407, 258: -77.5612, 259: -77.3789, 260: -77.1946, 261: -77.0092, 262: -76.8234, 263: -76.6381, 264: -76.4542, 265: -76.2725, 266: -76.0939, 267: -75.9192, 268: -75.7493, 269: -75.5850, 270: -75.4274, 271: -75.2772, 272: -75.1353, 273: -75.0027, 274: -74.8802, 275: -74.7688, 276: -74.6693, 277: -74.5826, 278: -74.5098, 279: -74.4515, 280: -74.4088, 281: -74.3826, 282: -74.3736, 283: -74.4241, 284: -74.5643, 285: -74.7728, 286: -75.0245, 287: -75.2937, 288: -75.5562, 289: -75.7912, 290: -75.9818, 291: -76.1156, 292: -76.1850, 293: -76.1870, 294: -76.1234, 295: -76.0001, 296: -75.8274, 297: -75.6187, 298: -75.3906, 299: -75.1617, 300: -74.9520, 301: -74.7812, 302: -74.6677, 303: -74.6272, 304: -74.6272, 305: -74.6272, 306: -74.6272, 307: -74.6272, 308: -74.6272, 309: -74.6272, 310: -74.6272, 311: -74.6272, 312: -74.6272, 313: -74.6677, 314: -74.7812, 315: -74.9520, 316: -75.1617, 317: -75.3906, 318: -75.6187, 319: -75.8274, 320: -76.0001, 321: -76.1234, 322: -76.1870, 323: -76.1850, 324: -76.1156, 325: -75.9818, 326: -75.7912, 327: -75.5562, 328: -75.2937, 329: -75.0245, 330: -74.7728, 331: -74.5643, 332: -74.4241, 333: -74.3736, 334: -74.5363, 335: -75.0065, 336: -75.7556, 337: -76.7538, 338: -77.9712, 339: -79.3779, 340: -80.9455, 341: -82.6465, 342: -84.4549, 343: -86.3460, 344: -88.2961, 345: -90.2825, 346: -92.2833, 347: -94.2771, 348: -96.2432, 349: -98.1611, 350: -100.0108, 351: -101.7726, 352: -103.4273, 353: -104.9561, 354: -106.3403, 355: -107.5618, 356: -108.6025, 357: -109.4442, 358: -110.0687, 359: -110.4576, 360: -110.5915 }
                        uniform token[] xformOpOrder = ["xformOp:translate", "xformOp:orient", "xformOp:rotateY:joint"]
                        over "forearm_link"
                        {
                            double xformOp:rotateY:joint.timeSamples = { 0: 85.5766, 1: 85.5522, 2: 85.4802, 3: 85.3609, 4: 85.1934, 5: 84.9762, 6: 84.7069, 7: 84.3829, 8: 84.0012, 9: 83.5592, 10: 83.0542, 11: 82.4843, 12: 81.8477, 13: 81.1437, 14: 80.3722, 15: 79.5338, 16: 78.6303, 17: 77.6645, 18: 76.6401, 19: 75.5621, 20: 74.4365, 21: 73.2706, 22: 72.0729, 23: 70.8532, 24: 69.6225, 25: 68.3934, 26: 67.1794, 27: 65.9956, 28: 64.8582, 29: 63.7848, 30: 62.7936, 31: 61.9038, 32: 61.1348, 33: 60.5062, 34: 60.0367, 35: 59.7438, 36: 59.6431, 37: 59.8994, 38: 60.6275, 39: 61.7588, 40: 63.2198, 41: 64.9367, 42: 66.8394, 43: 68.8635, 44: 70.9515, 45: 73.0529, 46: 75.1240, 47: 77.1275, 48: 79.0314, 49: 80.8089, 50: 82.4375, 51: 83.8981, 52: 85.1744, 53: 86.2520, 54: 87.1174, 55: 87.7568, 56: 88.1547, 57: 88.2923, 58: 88.2923, 59: 88.2923, 60: 88.2923, 61: 88.2923, 62: 88.2923, 63: 88.2923, 64: 88.2923, 65: 88.2923, 66: 88.2923, 67: 88.1547, 68: 87.7568, 69: 87.1174, 70: 86.2520, 71: 85.1744, 72: 83.8981, 73: 82.4375, 74: 80.8089, 75: 79.0314, 76: 77.1275, 77: 75.1240, 78: 73.0529, 79: 70.9515, 80: 68.8635, 81: 66.8394, 82: 64.9367, 83: 63.2198, 84: 61.7588, 85: 60.6275, 86: 59.8994, 87: 59.6431, 88: 59.6547, 89: 59.6888, 90: 59.7442, 91: 59.8196, 92: 59.9140, 93: 60.0260, 94: 60.1545, 95: 60.2982, 96: 60.4558, 97: 60.6262, 98: 60.8080, 99: 61.0002, 100: 61.2014, 101: 61.4105, 102: 61.6263, 103: 61.8476, 104: 62.0733, 105: 62.3023, 106: 62.5334, 107: 62.7655, 108: 62.9977, 109: 63.2287, 110: 63.4577, 111: 63.6836, 112: 63.9053, 113: 64.1220, 114: 64.3326, 115: 64.5363, 116: 64.7320, 117: 64.9189, 118: 65.0960, 119: 65.2624, 120: 65.4173, 121: 65.5597, 122: 65.6887, 123: 65.8035, 124: 65.9032, 125: 65.9868, 126: 66.0535, 127: 66.1023, 128: 66.1322, 129: 66.1424, 130: 66.3843, 131: 67.0725, 132: 68.1447, 133: 69.5342, 134: 71.1738, 135: 72.9989, 136: 74.9495, 137: 76.9708, 138: 79.0140, 139: 81.0364, 140: 83.0004, 141: 84.8737, 142: 86.6287, 143: 88.2415, 144: 89.6920, 145: 90.9625, 146: 92.0375, 147: 92.9022, 148: 93.5420, 149: 93.9404, 150: 94.0783, 151: 94.0783, 152: 94.0783, 153: 94.0783, 154: 94.0783, 155: 94.0783, 156: 94.0783, 157: 94.0783, 158: 94.0783, 159: 94.0783, 160: 93.9404, 161: 93.5420, 162: 92.9022, 163: 92.0375, 164: 90.9625, 165: 89.6920, 166: 88.2415, 167: 86.6287, 168: 84.8737, 169: 83.0004, 170: 81.0364, 171: 79.0140, 172: 76.9708, 173: 74.9495, 174: 72.9989, 175: 71.1738, 176: 69.5342, 177: 68.1447, 178: 67.0725, 179: 66.3844, 180: 66.1424, 181: 66.1424, 182: 66.1424, 183: 66.1424, 184: 66.1424, 185: 66.1424, 186: 66.1424, 187: 66.1424, 188: 66.1424, 189: 66.1424, 190: 66.3843, 191: 67.0725, 192: 68.1447, 193: 69.5342, 194: 71.1738, 195: 72.9989, 196: 74.9495, 197: 76.9708, 198: 79.0140, 199: 81.0364, 200: 83.0004, 201: 84.8737, 202: 86.6287, 203: 88.2415, 204: 89.6920, 205: 90.9625, 206: 92.0375, 207: 92.9022, 208: 93.5420, 209: 93.9404, 210: 94.0783, 211: 94.0783, 212: 94.0783, 213: 94.0783, 214: 94.0783, 215: 94.0783, 216: 94.0783, 217: 94.0783, 218: 94.0783, 219: 94.0783, 220: 93.9404, 221: 93.5420, 222: 92.9022, 223: 92.0375, 224: 90.9625, 225: 89.6920, 226: 88.2415, 227: 86.6287, 228: 84.8737, 229: 83.0004, 230: 81.0364, 231: 79.0140, 232: 76.9708, 233: 74.9495, 234: 72.9989, 235: 71.1738, 236: 69.5342, 237: 68.1447, 238: 67.0725, 239: 66.3844, 240: 66.1424, 241: 66.1322, 242: 66.1023, 243: 66.0535, 244: 65.9868, 245: 65.9032, 246: 65.8035, 247: 65.6887, 248: 65.5597, 249: 65.4173, 250: 65.2624, 251: 65.0960, 252: 64.9189, 253: 64.7320, 254: 64.5363, 255: 64.3326, 256: 64.1220, 257: 63.9053, 258: 63.6836, 259: 63.4577, 260: 63.2287, 261: 62.9977, 262: 62.7655, 263: 62.5334, 264: 62.3023, 265: 62.0733, 266: 61.8476, 267: 61.6263, 268: 61.4105, 269: 61.2014, 270: 61.0002, 271: 60.8080, 272: 60.6262, 273: 60.4558, 274: 60.2982, 275: 60.1545, 276: 60.0260, 277: 59.9140, 278: 59.8196, 279: 59.7442, 280: 59.6888, 281: 59.6547, 282: 59.6431, 283: 59.8994, 284: 60.6275, 285: 61.7588, 286: 63.2198, 287: 64.9367, 288: 66.8394, 289: 68.8635, 290: 70.9515, 291: 73.0529, 292: 75.1240, 293: 77.1275, 294: 79.0314, 295: 80.8089, 296: 82.4375, 297: 83.8981, 298: 85.1744, 299: 86.2520, 300: 87.1174, 301: 87.7568, 302: 88.1547, 303: 88.2923, 304: 88.2923, 305: 88.2923, 306: 88.2923, 307: 88.2923, 308: 88.2923, 309: 88.2923, 310: 88.2923, 311: 88.2923, 312: 88.2923, 313: 88.1547, 314: 87.7568, 315: 87.1174, 316: 86.2520, 317: 85.1744, 318: 83.8981, 319: 82.4375, 320: 80.8089, 321: 79.0314, 322: 77.1275, 323: 75.1240, 324: 73.0529, 325: 70.9515, 326: 68.8635, 327: 66.8394, 328: 64.9367, 329: 63.2198, 330: 61.7588, 331: 60.6275, 332: 59.8994, 333: 59.6431, 334: 59.8208, 335: 60.3311, 336: 61.1348, 337: 62.1879, 338: 63.4443, 339: 64.8582, 340: 66.3858, 341: 67.9863, 342: 69.6225, 343: 71.2615, 344: 72.8744, 345: 74.4365, 346: 75.9270, 347: 77.3293, 348: 78.6303, 349: 79.8206, 350: 80.8940, 351: 81.8477, 352: 82.6816, 353: 83.3980, 354: 84.0012, 355: 84.4972, 356: 84.8924, 357: 85.1934, 358: 85.4059, 359: 85.5335, 360: 85.5766 }
                            uniform token[] xformOpOrder = ["xformOp:translate", "xformOp:rotateY:joint"]
                            over "wrist_1_link"
                            {
                                double xformOp:rotateY:joint.timeSamples = { 0: -64.9851, 1: -65.0365, 2: -65.1864, 3: -65.4269, 4: -65.7493, 5: -66.1440, 6: -66.6011, 7: -67.1102, 8: -67.6609, 9: -68.2428, 10: -68.8456, 11: -69.4596, 12: -70.0751, 13: -70.6835, 14: -71.2765, 15: -71.8466, 16: -72.3871, 17: -72.8924, 18: -73.3577, 19: -73.7792, 20: -74.1540, 21: -74.4804, 22: -74.7578, 23: -74.9864, 24: -75.1676, 25: -75.3038, 26: -75.3984, 27: -75.4555, 28: -75.4803, 29: -75.4785, 30: -75.4566, 31: -75.4212, 32: -75.3793, 33: -75.3375, 34: -75.3020, 35: -75.2780, 36: -75.2695, 37: -75.4753, 38: -76.0632, 39: -76.9860, 40: -78.1953, 41: -79.6430, 42: -81.2831, 43: -83.0722, 44: -84.9697, 45: -86.9373, 46: -88.9391, 47: -90.9405, 48: -92.9080, 49: -94.8088, 50: -96.6102, 51: -98.2795, 52: -99.7839, 53: -101.0903, 54: -102.1654, 55: -102.9756, 56: -103.4869, 57: -103.6651, 58: -103.6651, 59: -103.6651, 60: -103.6651, 61: -103.6651, 62: -103.6651, 63: -103.6651, 64: -103.6651, 65: -103.6651, 66: -103.6651, 67: -103.4869, 68: -102.9756, 69: -102.1654, 70: -101.0903, 71: -99.7839, 72: -98.2795, 73: -96.6102, 74: -94.8088, 75: -92.9080, 76: -90.9405, 77: -88.9391, 78: -86.9373, 79: -84.9697, 80: -83.0722, 81: -81.2831, 82: -79.6430, 83: -78.1953, 84: -76.9860, 85: -76.0632, 86: -75.4753, 87: -75.2695, 88: -75.2722, 89: -75.2800, 90: -75.2926, 91: -75.3099, 92: -75.3313, 93: -75.3567, 94: -75.3857, 95: -75.4179, 96: -75.4531, 97: -75.4909, 98: -75.5309, 99: -75.5728, 100: -75.6164, 101: -75.6612, 102: -75.7071, 103: -75.7537, 104: -75.8008, 105: -75.8481, 106: -75.8952, 107: -75.9421, 108: -75.9885, 109: -76.0341, 110: -76.0788, 111: -76.1224, 112: -76.1646, 113: -76.2055, 114: -76.2447, 115: -76.2822, 116: -76.3178, 117: -76.3515, 118: -76.3830, 119: -76.4124, 120: -76.4394, 121: -76.4640, 122: -76.4862, 123: -76.5057, 124: -76.5226, 125: -76.5366, 126: -76.5478, 127: -76.5559, 128: -76.5609, 129: -76.5626, 130: -76.7610, 131: -77.3283, 132: -78.2209, 133: -79.3941, 134: -80.8037, 135: -82.4069, 136: -84.1629, 137: -86.0329, 138: -87.9799, 139: -89.9685, 140: -91.9644, 141: -93.9337, 142: -95.8427, 143: -97.6577, 144: -99.3446, 145: -100.8689, 146: -102.1958, 147: -103.2899, 148: -104.1157, 149: -104.6374, 150: -104.8193, 151: -104.8193, 152: -104.8193, 153: -104.8193, 154: -104.8193, 155: -104.8193, 156: -104.8193, 157: -104.8193, 158: -104.8193, 159: -104.8193, 160: -104.6374, 161: -104.1157, 162: -103.2899, 163: -102.1958, 164: -100.8689, 165: -99.3446, 166: -97.6577, 167: -95.8427, 168: -93.9337, 169: -91.9644, 170: -89.9685, 171: -87.9799, 172: -86.0329, 173: -84.1629, 174: -82.4069, 175: -80.8037, 176: -79.3941, 177: -78.2209, 178: -77.3283, 179: -76.7610, 180: -76.5626, 181: -76.5626, 182: -76.5626, 183: -76.5626, 184: -76.5626, 185: -76.5626, 186: -76.5626, 187: -76.5626, 188: -76.5626, 189: -76.5626, 190: -76.7610, 191: -77.3283, 192: -78.2209, 193: -79.3941, 194: -80.8037, 195: -82.4069, 196: -84.1629, 197: -86.0329, 198: -87.9799, 199: -89.9685, 200: -91.9644, 201: -93.9337, 202: -95.8427, 203: -97.6577, 204: -99.3446, 205: -100.8689, 206: -102.1958, 207: -103.2899, 208: -104.1157, 209: -104.6374, 210: -104.8193, 211: -104.8193, 212: -104.8193, 213: -104.8193, 214: -104.8193, 215: -104.8193, 216: -104.8193, 217: -104.8193, 218: -104.8193, 219: -104.8193, 220: -104.6374, 221: -104.1157, 222: -103.2899, 223: -102.1958, 224: -100.8689, 225: -99.3446, 226: -97.6577, 227: -95.8427, 228: -93.9337, 229: -91.9644, 230: -89.9685, 231: -87.9799, 232: -86.0329, 233: -84.1629, 234: -82.4069, 235: -80.8037, 236: -79.3941, 237: -78.2209, 238: -77.3283, 239: -76.7610, 240: -76.5626, 241: -76.5609, 242: -76.5559, 243: -76.5478, 244: -76.5366, 245: -76.5226, 246: -76.5057, 247: -76.4862, 248: -76.4640, 249: -76.4394, 250: -76.4124, 251: -76.3830, 252: -76.3515, 253: -76.3178, 254: -76.2822, 255: -76.2447, 256: -76.2055, 257: -76.1646, 258: -76.1224, 259: -76.0788, 260: -76.0341, 261: -75.9885, 262: -75.9421, 263: -75.8952, 264: -75.8481, 265: -75.8008, 266: -75.7537, 267: -75.7071, 268: -75.6612, 269: -75.6164, 270: -75.5728, 271: -75.5309, 272: -75.4909, 273: -75.4531, 274: -75.4179, 275: -75.3857, 276: -75.3567, 277: -75.3313, 278: -75.3099, 279: -75.2926, 280: -75.2800, 281: -75.2722, 282: -75.2695, 283: -75.4753, 284: -76.0632, 285: -76.9860, 286: -78.1953, 287: -79.6430, 288: -81.2831, 289: -83.0722, 290: -84.9697, 291: -86.9373, 292: -88.9391, 293: -90.9405, 294: -92.9080, 295: -94.8088, 296: -96.6102, 297: -98.2795, 298: -99.7839, 299: -101.0903, 300: -102.1654, 301: -102.9756, 302: -103.4869, 303: -103.6651, 304: -103.6651, 305: -103.6651, 306: -103.6651, 307: -103.6651, 308: -103.6651, 309: -103.6651, 310: -103.6651, 311: -103.6651, 312: -103.6651, 313: -103.4869, 314: -102.9756, 315: -102.1654, 316: -101.0903, 317: -99.7839, 318: -98.2795, 319: -96.6102, 320: -94.8088, 321: -92.9080, 322: -90.9405, 323: -88.9391, 324: -86.9373, 325: -84.9697, 326: -83.0722, 327: -81.2831, 328: -79.6430, 329: -78.1953, 330: -76.9860, 331: -76.0632, 332: -75.4753, 333: -75.2695, 334: -75.2845, 335: -75.3247, 336: -75.3793, 337: -75.4341, 338: -75.4731, 339: -75.4803, 340: -75.4403, 341: -75.3398, 342: -75.1676, 343: -74.9155, 344: -74.5783, 345: -74.1540, 346: -73.6438, 347: -73.0522, 348: -72.3871, 349: -71.6595, 350: -70.8833, 351: -70.0751, 352: -69.2543, 353: -68.4419, 354: -67.6609, 355: -66.9353, 356: -66.2899, 357: -65.7493, 358: -65.3372, 359: -65.0759, 360: -64.9851 }
                                uniform token[] xformOpOrder = ["xformOp:translate", "xformOp:orient", "xformOp:rotateY:joint"]
                                over "wrist_2_link"
                                {
                                    double xformOp:rotateZ:joint.timeSamples = { 0: -90.0000, 1: -90.0000, 2: -90.0000, 3: -90.0000, 4: -90.0000, 5: -90.0000, 6: -90.0000, 7: -90.0000, 8: -90.0000, 9: -90.0000, 10: -90.0000, 11: -90.0000, 12: -90.0000, 13: -90.0000, 14: -90.0000, 15: -90.0000, 16: -90.0000, 17: -90.0000, 18: -90.0000, 19: -90.0000, 20: -90.0000, 21: -90.0000, 22: -90.0000, 23: -90.0000, 24: -90.0000, 25: -90.0000, 26: -90.0000, 27: -90.0000, 28: -90.0000, 29: -90.0000, 30: -90.0000, 31: -90.0000, 32: -90.0000, 33: -90.0000, 34: -90.0000, 35: -90.0000, 36: -90.0000, 37: -90.0000, 38: -90.0000, 39: -90.0000, 40: -90.0000, 41: -90.0000, 42: -90.0000, 43: -90.0000, 44: -90.0000, 45: -90.0000, 46: -90.0000, 47: -90.0000, 48: -90.0000, 49: -90.0000, 50: -90.0000, 51: -90.0000, 52: -90.0000, 53: -90.0000, 54: -90.0000, 55: -90.0000, 56: -90.0000, 57: -90.0000, 58: -90.0000, 59: -90.0000, 60: -90.0000, 61: -90.0000, 62: -90.0000, 63: -90.0000, 64: -90.0000, 65: -90.0000, 66: -90.0000, 67: -90.0000, 68: -90.0000, 69: -90.0000, 70: -90.0000, 71: -90.0000, 72: -90.0000, 73: -90.0000, 74: -90.0000, 75: -90.0000, 76: -90.0000, 77: -90.0000, 78: -90.0000, 79: -90.0000, 80: -90.0000, 81: -90.0000, 82: -90.0000, 83: -90.0000, 84: -90.0000, 85: -90.0000, 86: -90.0000, 87: -90.0000, 88: -90.0000, 89: -90.0000, 90: -90.0000, 91: -90.0000, 92: -90.0000, 93: -90.0000, 94: -90.0000, 95: -90.0000, 96: -90.0000, 97: -90.0000, 98: -90.0000, 99: -90.0000, 100: -90.0000, 101: -90.0000, 102: -90.0000, 103: -90.0000, 104: -90.0000, 105: -90.0000, 106: -90.0000, 107: -90.0000, 108: -90.0000, 109: -90.0000, 110: -90.0000, 111: -90.0000, 112: -90.0000, 113: -90.0000, 114: -90.0000, 115: -90.0000, 116: -90.0000, 117: -90.0000, 118: -90.0000, 119: -90.0000, 120: -90.0000, 121: -90.0000, 122: -90.0000, 123: -90.0000, 124: -90.0000, 125: -90.0000, 126: -90.0000, 127: -90.0000, 128: -90.0000, 129: -90.0000, 130: -90.0000, 131: -90.0000, 132: -90.0000, 133: -90.0000, 134: -90.0000, 135: -90.0000, 136: -90.0000, 137: -90.0000, 138: -90.0000, 139: -90.0000, 140: -90.0000, 141: -90.0000, 142: -90.0000, 143: -90.0000, 144: -90.0000, 145: -90.0000, 146: -90.0000, 147: -90.0000, 148: -90.0000, 149: -90.0000, 150: -90.0000, 151: -90.0000, 152: -90.0000, 153: -90.0000, 154: -90.0000, 155: -90.0000, 156: -90.0000, 157: -90.0000, 158: -90.0000, 159: -90.0000, 160: -90.0000, 161: -90.0000, 162: -90.0000, 163: -90.0000, 164: -90.0000, 165: -90.0000, 166: -90.0000, 167: -90.0000, 168: -90.0000, 169: -90.0000, 170: -90.0000, 171: -90.0000, 172: -90.0000, 173: -90.0000, 174: -90.0000, 175: -90.0000, 176: -90.0000, 177: -90.0000, 178: -90.0000, 179: -90.0000, 180: -90.0000, 181: -90.0000, 182: -90.0000, 183: -90.0000, 184: -90.0000, 185: -90.0000, 186: -90.0000, 187: -90.0000, 188: -90.0000, 189: -90.0000, 190: -90.0000, 191: -90.0000, 192: -90.0000, 193: -90.0000, 194: -90.0000, 195: -90.0000, 196: -90.0000, 197: -90.0000, 198: -90.0000, 199: -90.0000, 200: -90.0000, 201: -90.0000, 202: -90.0000, 203: -90.0000, 204: -90.0000, 205: -90.0000, 206: -90.0000, 207: -90.0000, 208: -90.0000, 209: -90.0000, 210: -90.0000, 211: -90.0000, 212: -90.0000, 213: -90.0000, 214: -90.0000, 215: -90.0000, 216: -90.0000, 217: -90.0000, 218: -90.0000, 219: -90.0000, 220: -90.0000, 221: -90.0000, 222: -90.0000, 223: -90.0000, 224: -90.0000, 225: -90.0000, 226: -90.0000, 227: -90.0000, 228: -90.0000, 229: -90.0000, 230: -90.0000, 231: -90.0000, 232: -90.0000, 233: -90.0000, 234: -90.0000, 235: -90.0000, 236: -90.0000, 237: -90.0000, 238: -90.0000, 239: -90.0000, 240: -90.0000, 241: -90.0000, 242: -90.0000, 243: -90.0000, 244: -90.0000, 245: -90.0000, 246: -90.0000, 247: -90.0000, 248: -90.0000, 249: -90.0000, 250: -90.0000, 251: -90.0000, 252: -90.0000, 253: -90.0000, 254: -90.0000, 255: -90.0000, 256: -90.0000, 257: -90.0000, 258: -90.0000, 259: -90.0000, 260: -90.0000, 261: -90.0000, 262: -90.0000, 263: -90.0000, 264: -90.0000, 265: -90.0000, 266: -90.0000, 267: -90.0000, 268: -90.0000, 269: -90.0000, 270: -90.0000, 271: -90.0000, 272: -90.0000, 273: -90.0000, 274: -90.0000, 275: -90.0000, 276: -90.0000, 277: -90.0000, 278: -90.0000, 279: -90.0000, 280: -90.0000, 281: -90.0000, 282: -90.0000, 283: -90.0000, 284: -90.0000, 285: -90.0000, 286: -90.0000, 287: -90.0000, 288: -90.0000, 289: -90.0000, 290: -90.0000, 291: -90.0000, 292: -90.0000, 293: -90.0000, 294: -90.0000, 295: -90.0000, 296: -90.0000, 297: -90.0000, 298: -90.0000, 299: -90.0000, 300: -90.0000, 301: -90.0000, 302: -90.0000, 303: -90.0000, 304: -90.0000, 305: -90.0000, 306: -90.0000, 307: -90.0000, 308: -90.0000, 309: -90.0000, 310: -90.0000, 311: -90.0000, 312: -90.0000, 313: -90.0000, 314: -90.0000, 315: -90.0000, 316: -90.0000, 317: -90.0000, 318: -90.0000, 319: -90.0000, 320: -90.0000, 321: -90.0000, 322: -90.0000, 323: -90.0000, 324: -90.0000, 325: -90.0000, 326: -90.0000, 327: -90.0000, 328: -90.0000, 329: -90.0000, 330: -90.0000, 331: -90.0000, 332: -90.0000, 333: -90.0000, 334: -90.0000, 335: -90.0000, 336: -90.0000, 337: -90.0000, 338: -90.0000, 339: -90.0000, 340: -90.0000, 341: -90.0000, 342: -90.0000, 343: -90.0000, 344: -90.0000, 345: -90.0000, 346: -90.0000, 347: -90.0000, 348: -90.0000, 349: -90.0000, 350: -90.0000, 351: -90.0000, 352: -90.0000, 353: -90.0000, 354: -90.0000, 355: -90.0000, 356: -90.0000, 357: -90.0000, 358: -90.0000, 359: -90.0000, 360: -90.0000 }
                                    uniform token[] xformOpOrder = ["xformOp:translate", "xformOp:rotateZ:joint"]
                                    over "wrist_3_link"
                                    {
                                        double xformOp:rotateY:joint.timeSamples = { 0: -111.3653, 1: -111.3202, 2: -111.1892, 3: -110.9806, 4: -110.7038, 5: -110.3691, 6: -109.9870, 7: -109.5678, 8: -109.1212, 9: -108.6560, 10: -108.1800, 11: -107.7002, 12: -107.2224, 13: -106.7513, 14: -106.2909, 15: -105.8443, 16: -105.4140, 17: -105.0017, 18: -104.6087, 19: -104.2361, 20: -103.8843, 21: -103.5537, 22: -103.2444, 23: -102.9565, 24: -102.6898, 25: -102.4442, 26: -102.2196, 27: -102.0157, 28: -101.8324, 29: -101.6697, 30: -101.5275, 31: -101.4059, 32: -101.3052, 33: -101.2257, 34: -101.1679, 35: -101.1325, 36: -101.1204, 37: -101.1204, 38: -101.1204, 39: -101.1204, 40: -101.1204, 41: -101.1204, 42: -101.1204, 43: -101.1204, 44: -101.1204, 45: -101.1204, 46: -101.1204, 47: -101.1204, 48: -101.1204, 49: -101.1204, 50: -101.1204, 51: -101.1204, 52: -101.1204, 53: -101.1204, 54: -101.1204, 55: -101.1204, 56: -101.1204, 57: -101.1204, 58: -101.1204, 59: -101.1204, 60: -101.1204, 61: -101.1204, 62: -101.1204, 63: -101.1204, 64: -101.1204, 65: -101.1204, 66: -101.1204, 67: -101.1204, 68: -101.1204, 69: -101.1204, 70: -101.1204, 71: -101.1204, 72: -101.1204, 73: -101.1204, 74: -101.1204, 75: -101.1204, 76: -101.1204, 77: -101.1204, 78: -101.1204, 79: -101.1204, 80: -101.1204, 81: -101.1204, 82: -101.1204, 83: -101.1204, 84: -101.1204, 85: -101.1204, 86: -101.1204, 87: -101.1204, 88: -101.1215, 89: -101.1248, 90: -101.1301, 91: -101.1373, 92: -101.1464, 93: -101.1572, 94: -101.1697, 95: -101.1837, 96: -101.1992, 97: -101.2160, 98: -101.2341, 99: -101.2533, 100: -101.2736, 101: -101.2949, 102: -101.3170, 103: -101.3399, 104: -101.3634, 105: -101.3875, 106: -101.4120, 107: -101.4368, 108: -101.4619, 109: -101.4871, 110: -101.5123, 111: -101.5373, 112: -101.5621, 113: -101.5866, 114: -101.6106, 115: -101.6340, 116: -101.6566, 117: -101.6784, 118: -101.6992, 119: -101.7189, 120: -101.7373, 121: -101.7544, 122: -101.7699, 123: -101.7838, 124: -101.7959, 125: -101.8061, 126: -101.8143, 127: -101.8202, 128: -101.8239, 129: -101.8252, 130: -101.8252, 131: -101.8252, 132: -101.8252, 133: -101.8252, 134: -101.8252, 135: -101.8252, 136: -101.8252, 137: -101.8252, 138: -101.8252, 139: -101.8252, 140: -101.8252, 141: -101.8252, 142: -101.8252, 143: -101.8252, 144: -101.8252, 145: -101.8252, 146: -101.8252, 147: -101.8252, 148: -101.8252, 149: -101.8252, 150: -101.8252, 151: -101.8252, 152: -101.8252, 153: -101.8252, 154: -101.8252, 155: -101.8252, 156: -101.8252, 157: -101.8252, 158: -101.8252, 159: -101.8252, 160: -101.8252, 161: -101.8252, 162: -101.8252, 163: -101.8252, 164: -101.8252, 165: -101.8252, 166: -101.8252, 167: -101.8252, 168: -101.8252, 169: -101.8252, 170: -101.8252, 171: -101.8252, 172: -101.8252, 173: -101.8252, 174: -101.8252, 175: -101.8252, 176: -101.8252, 177: -101.8252, 178: -101.8252, 179: -101.8252, 180: -101.8252, 181: -101.8252, 182: -101.8252, 183: -101.8252, 184: -101.8252, 185: -101.8252, 186: -101.8252, 187: -101.8252, 188: -101.8252, 189: -101.8252, 190: -101.8252, 191: -101.8252, 192: -101.8252, 193: -101.8252, 194: -101.8252, 195: -101.8252, 196: -101.8252, 197: -101.8252, 198: -101.8252, 199: -101.8252, 200: -101.8252, 201: -101.8252, 202: -101.8252, 203: -101.8252, 204: -101.8252, 205: -101.8252, 206: -101.8252, 207: -101.8252, 208: -101.8252, 209: -101.8252, 210: -101.8252, 211: -101.8252, 212: -101.8252, 213: -101.8252, 214: -101.8252, 215: -101.8252, 216: -101.8252, 217: -101.8252, 218: -101.8252, 219: -101.8252, 220: -101.8252, 221: -101.8252, 222: -101.8252, 223: -101.8252, 224: -101.8252, 225: -101.8252, 226: -101.8252, 227: -101.8252, 228: -101.8252, 229: -101.8252, 230: -101.8252, 231: -101.8252, 232: -101.8252, 233: -101.8252, 234: -101.8252, 235: -101.8252, 236: -101.8252, 237: -101.8252, 238: -101.8252, 239: -101.8252, 240: -101.8252, 241: -101.8239, 242: -101.8202, 243: -101.8143, 244: -101.8061, 245: -101.7959, 246: -101.7838, 247: -101.7699, 248: -101.7544, 249: -101.7373, 250: -101.7189, 251: -101.6992, 252: -101.6784, 253: -101.6566, 254: -101.6340, 255: -101.6106, 256: -101.5866, 257: -101.5621, 258: -101.5373, 259: -101.5123, 260: -101.4871, 261: -101.4619, 262: -101.4368, 263: -101.4120, 264: -101.3875, 265: -101.3634, 266: -101.3399, 267: -101.3170, 268: -101.2949, 269: -101.2736, 270: -101.2533, 271: -101.2341, 272: -101.2160, 273: -101.1992, 274: -101.1837, 275: -101.1697, 276: -101.1572, 277: -101.1464, 278: -101.1373, 279: -101.1301, 280: -101.1248, 281: -101.1215, 282: -101.1204, 283: -101.1204, 284: -101.1204, 285: -101.1204, 286: -101.1204, 287: -101.1204, 288: -101.1204, 289: -101.1204, 290: -101.1204, 291: -101.1204, 292: -101.1204, 293: -101.1204, 294: -101.1204, 295: -101.1204, 296: -101.1204, 297: -101.1204, 298: -101.1204, 299: -101.1204, 300: -101.1204, 301: -101.1204, 302: -101.1204, 303: -101.1204, 304: -101.1204, 305: -101.1204, 306: -101.1204, 307: -101.1204, 308: -101.1204, 309: -101.1204, 310: -101.1204, 311: -101.1204, 312: -101.1204, 313: -101.1204, 314: -101.1204, 315: -101.1204, 316: -101.1204, 317: -101.1204, 318: -101.1204, 319: -101.1204, 320: -101.1204, 321: -101.1204, 322: -101.1204, 323: -101.1204, 324: -101.1204, 325: -101.1204, 326: -101.1204, 327: -101.1204, 328: -101.1204, 329: -101.1204, 330: -101.1204, 331: -101.1204, 332: -101.1204, 333: -101.1204, 334: -101.1417, 335: -101.2040, 336: -101.3052, 337: -101.4441, 338: -101.6200, 339: -101.8324, 340: -102.0813, 341: -102.3670, 342: -102.6898, 343: -103.0501, 344: -103.4482, 345: -103.8843, 346: -104.3580, 347: -104.8685, 348: -105.4140, 349: -105.9915, 350: -106.5965, 351: -107.2224, 352: -107.8602, 353: -108.4981, 354: -109.1212, 355: -109.7111, 356: -110.2465, 357: -110.7038, 358: -111.0582, 359: -111.2857, 360: -111.3653 }
                                        uniform token[] xformOpOrder = ["xformOp:translate", "xformOp:rotateY:joint"]
                                        def Cylinder "Cup"
                                        {
                                            uniform token axis = "Y"
                                            double height = 0.03
                                            double radius = 0.035
                                            color3f[] primvars:displayColor = [(0.12, 0.12, 0.13)]
                                            double3 xformOp:translate = (0, 0.1072, 0)
                                            uniform token[] xformOpOrder = ["xformOp:translate"]
                                        }
                                        def Cube "Box"
                                        {
                                            double size = 0.16
                                            color3f[] primvars:displayColor = [(0.72, 0.52, 0.30)]
                                            token visibility.timeSamples = { 0: "invisible", 61: "inherited", 155: "invisible", 215: "inherited", 308: "invisible" }
                                            double3 xformOp:translate = (0, 0.2022, 0)
                                            uniform token[] xformOpOrder = ["xformOp:translate"]
                                        }
                                    }
                                }
                            }
                        }
                    }
                }
            }
        }
    }

    def Cube "PedestalA"
    {
        double size = 1
        color3f[] primvars:displayColor = [(0.36, 0.38, 0.42)]
        double3 xformOp:translate = (0.696279237645643, -0.48753997089838913, 0.15)
        float3 xformOp:scale = (0.3, 0.3, 0.3)
        uniform token[] xformOpOrder = ["xformOp:translate", "xformOp:scale"]
    }
    def Cube "BoxA"
    {
        double size = 0.16
        color3f[] primvars:displayColor = [(0.72, 0.52, 0.30)]
        token visibility.timeSamples = { 0: "inherited", 61: "invisible", 308: "inherited" }
        matrix4d xformOp:transform = ( (0.8191520442817125, -0.5735764363614421, -0.00000000009889888518423467, 0), (-0.00000000006082000267785669, 0.00000000008556509191122424, -1, 0), (0.5735764363614421, 0.8191520442817125, 0.000000000035205961571536065, 0), (0.6962792367737868, -0.48753997024685913, 0.38000000013221863, 1) )
        uniform token[] xformOpOrder = ["xformOp:transform"]
    }
    def Cube "PedestalB"
    {
        double size = 1
        color3f[] primvars:displayColor = [(0.36, 0.38, 0.42)]
        double3 xformOp:translate = (-0.45886114908083697, 0.6553216354311934, 0.15)
        float3 xformOp:scale = (0.3, 0.3, 0.3)
        uniform token[] xformOpOrder = ["xformOp:translate", "xformOp:scale"]
    }
    def Cube "BoxB"
    {
        double size = 0.16
        color3f[] primvars:displayColor = [(0.72, 0.52, 0.30)]
        token visibility.timeSamples = { 0: "invisible", 155: "inherited", 215: "invisible" }
        matrix4d xformOp:transform = ( (-0.5735764363411735, 0.8191520442959045, -0.00000000015218094939447182, 0), (0.00000000004692932507682558, -0.00000000015291838859600992, -0.9999999999999999, 0), (-0.8191520442959045, -0.5735764363411736, 0.00000000004926812375341842, 0), (-0.45886114847309184, 0.6553216345013472, 0.3800000002489513, 1) )
        uniform token[] xformOpOrder = ["xformOp:transform"]
    }
}
